<?xml version="1.0" standalone="no"?>
<!DOCTYPE svg PUBLIC "-//W3C//DTD SVG 20010904//EN"
 "http://www.w3.org/TR/2001/REC-SVG-20010904/DTD/svg10.dtd">
<svg version="1.0" xmlns="http://www.w3.org/2000/svg"
 width="691.000000pt" height="361.000000pt" viewBox="0 0 691.000000 361.000000"
 preserveAspectRatio="xMidYMid meet">

<g transform="translate(0.000000,361.000000) scale(0.100000,-0.100000)"
fill="#000000" stroke="none">
<path d="M1910 3434 c-241 -21 -403 -65 -605 -165 -164 -81 -287 -171 -436
-319 -91 -90 -146 -155 -198 -233 -373 -565 -370 -1245 10 -1817 79 -119 278
-320 409 -412 201 -142 438 -237 700 -280 113 -18 396 -15 510 5 333 60 528
162 783 407 260 250 416 467 679 945 185 335 344 575 481 723 246 265 382 335
647 335 231 -1 386 -66 559 -236 241 -237 317 -536 210 -832 -81 -225 -299
-440 -530 -523 -67 -24 -88 -26 -224 -27 -139 0 -156 2 -239 29 -114 38 -225
106 -382 236 -70 58 -131 105 -135 105 -15 0 -423 -669 -417 -684 5 -14 214
-189 296 -248 150 -109 353 -190 573 -229 114 -21 387 -23 504 -5 397 62 696
216 977 505 192 197 323 429 371 656 35 165 41 230 41 445 0 257 -15 373 -71
550 -68 218 -169 372 -383 585 -220 220 -360 314 -570 384 -203 67 -487 97
-744 77 -323 -24 -499 -80 -711 -225 -256 -175 -491 -472 -805 -1016 -186
-324 -239 -410 -348 -570 -248 -365 -467 -554 -684 -590 -99 -17 -295 -7 -373
18 -156 50 -308 155 -414 287 -68 85 -143 230 -166 320 -65 257 14 522 219
734 182 188 375 270 610 258 122 -6 195 -25 311 -83 85 -43 147 -88 288 -212
59 -52 110 -93 112 -91 6 7 227 387 272 469 23 41 58 113 78 159 l36 84 -24
34 c-51 71 -243 206 -432 303 -124 63 -240 103 -367 124 -88 15 -336 27 -418
20z"/>
</g>
</svg>
